<svg width="16" height="16" viewBox="0 0 16 16" fill="none" xmlns="http://www.w3.org/2000/svg">
<g id="icon ant-design-area-chart-outlined" clip-path="url(#clip0_8719_318)">
<path id="Vector" d="M15.8333 13.8333H1.5V0.833293C1.5 0.741626 1.425 0.666626 1.33333 0.666626H0.166667C0.075 0.666626 0 0.741626 0 0.833293V15.1666C0 15.2583 0.075 15.3333 0.166667 15.3333H15.8333C15.925 15.3333 16 15.2583 16 15.1666V14C16 13.9083 15.925 13.8333 15.8333 13.8333ZM3 12.5H14.1667C14.2583 12.5 14.3333 12.425 14.3333 12.3333V3.24996C14.3333 3.09996 14.1521 3.02704 14.0479 3.13121L9.66667 7.51246L7.05417 4.92913C7.02284 4.89811 6.98054 4.88071 6.93646 4.88071C6.89238 4.88071 6.85007 4.89811 6.81875 4.92913L2.88125 8.87913C2.86596 8.89445 2.85385 8.91264 2.84562 8.93267C2.8374 8.95269 2.83322 8.97415 2.83333 8.99579V12.3333C2.83333 12.425 2.90833 12.5 3 12.5Z" fill="#23856D"/>
</g>
<defs>
<clipPath id="clip0_8719_318">
<rect width="16" height="14.6667" fill="white" transform="translate(0 0.666626)"/>
</clipPath>
</defs>
</svg>
